{"title":"ilan Bluestone Live at Madison Square Garden 720p","uid":11453274,"size":1270954457,"categoryP":"video","categoryS":"music_videos","magnet":"?xt=urn:btih:bdc8254f2226a66f323b852230739b1fb1c2d1b6&amp;dn=ilan+Bluestone+Live+at+Madison+Square+Garden+720p+&amp;tr=udp%3A%2F%2Ftracker.openbittorrent.com%3A80&amp;tr=udp%3A%2F%2Fopen.demonii.com%3A1337&amp;tr=udp%3A%2F%2Ftracker.coppersurfer.tk%3A6969&amp;tr=udp%3A%2F%2Fexodus.desync.com%3A6969","seeders":0,"leechers":0,"uploader":"Liebe_Ist","files":1,"time":1415909098,"description":"General\nFormat                         : MPEG-4\nFormat profile                 : Base Media / Version 2\nCodec ID                       : mp42\nFile size                      : 1.18 GiB\nDuration                       : 58mn 57s\nOverall bit rate mode          : Variable\nOverall bit rate               : 2 874 Kbps\nEncoded date                   : UTC 2014-11-10 01:17:46\nTagged date                    : UTC 2014-11-10 01:17:46\ngsst                           : 0\ngstd                           : 3540531\ngssd                           : BD5688F4BHH1415904431402586\ngshh                           : r8---sn-8pgbpohxqp5-auol.googlevideo.com\n\nVideo\nID                             : 1\nFormat                         : AVC\nFormat/Info                    : Advanced Video Codec\nFormat profile                 : &lt;a class=&quot;__cf_email__&quot; href=&quot;/cdn-cgi/l/email-protection&quot; data-cfemail=&quot;b3fbdad4dbf3ff809d82&quot;&gt;[email&amp;#160;protected]&lt;/a&gt;&lt;script cf-hash='f9e31' type=&quot;text/javascript&quot;&gt;\n/* &lt;![CDATA[ */!function(){try{var t=&quot;currentScript&quot;in document?document.currentScript:function(){for(var t=document.getElementsByTagName(&quot;script&quot;),e=t.length;e--;)if(t[e].getAttribute(&quot;cf-hash&quot;))return t[e]}();if(t&amp;&amp;t.previousSibling){var e,r,n,i,c=t.previousSibling,a=c.getAttribute(&quot;data-cfemail&quot;);if(a){for(e=&quot;&quot;,r=parseInt(a.substr(0,2),16),n=2;a.length-n;n+=2)i=parseInt(a.substr(n,2),16)^r,e+=String.fromCharCode(i);e=document.createTextNode(e),c.parentNode.replaceChild(e,c)}}}catch(u){}}();/* ]]&gt; */&lt;/script&gt;\nFormat settings, CABAC         : Yes\nFormat settings, ReFrames      : 1 frame\nCodec ID                       : avc1\nCodec ID/Info                  : Advanced Video Coding\nDuration                       : 58mn 57s\nBit rate                       : 2 679 Kbps\nMaximum bit rate               : 15.0 Mbps\nWidth                          : 1 280 pixels\nHeight                         : 720 pixels\nDisplay aspect ratio           : 16:9\nFrame rate mode                : Constant\nFrame rate                     : 29.970 fps\nColor space                    : YUV\nChroma subsampling             : 4:2:0\nBit depth                      : 8 bits\nScan type                      : Progressive\nBits/(Pixel*Frame)             : 0.097\nStream size                    : 1.10 GiB (93%)\nTagged date                    : UTC 2014-11-10 01:20:03\n\nAudio\nID                             : 2\nFormat                         : AAC\nFormat/Info                    : Advanced Audio Codec\nFormat profile                 : LC\nCodec ID                       : 40\nDuration                       : 58mn 57s\nBit rate mode                  : Variable\nBit rate                       : 192 Kbps\nMaximum bit rate               : 203 Kbps\nChannel count                  : 2 channels\nChannel positions              : Front: L R\nSampling rate                  : 44.1 KHz\nCompression mode               : Lossy\nStream size                    : 81.0 MiB (7%)\nTitle                          : IsoMedia File Produced by Google, 5-11-2011\nEncoded date                   : UTC 2014-11-10 01:19:05\nTagged date                    : UTC 2014-11-10 01:20:03","torrent":{"xt":"urn:btih:bdc8254f2226a66f323b852230739b1fb1c2d1b6","amp;dn":"ilan+Bluestone+Live+at+Madison+Square+Garden+720p+","amp;tr":["udp%3A%2F%2Ftracker.openbittorrent.com%3A80","udp%3A%2F%2Fopen.demonii.com%3A1337","udp%3A%2F%2Ftracker.coppersurfer.tk%3A6969","udp%3A%2F%2Fexodus.desync.com%3A6969"],"infoHash":"bdc8254f2226a66f323b852230739b1fb1c2d1b6","infoHashBuffer":{"type":"Buffer","data":[189,200,37,79,34,38,166,111,50,59,133,34,48,115,155,31,177,194,209,182]},"announce":[],"urlList":[]}}